<svg data-v-fde0c5aa="" xmlns="http://www.w3.org/2000/svg" viewBox="0 0 300 300" class="iconAbove"><!----><defs data-v-fde0c5aa=""><!----></defs><rect data-v-fde0c5aa="" fill="transparent" x="0" y="0" width="300px" height="300px" class="logo-background-square"></rect><defs data-v-fde0c5aa=""><!----></defs><g data-v-fde0c5aa="" id="40294e82-38ed-4245-a888-f15812539014" fill="#000000" transform="matrix(4.756018510566087,0,0,4.756018510566087,51.33639342430091,189.56336442977306)"><path d="M6.02 4.31C5.22 3.61 4.41 3.40 3.33 3.40C2.07 3.40 0.42 3.96 0.42 5.56C0.42 7.13 1.97 7.60 3.28 7.70C4.26 7.76 4.65 7.95 4.65 8.43C4.65 8.93 4.05 9.27 3.40 9.25C2.63 9.24 1.51 8.83 1.02 8.29L0.18 9.51C1.19 10.56 2.28 10.74 3.37 10.74C5.35 10.74 6.34 9.69 6.34 8.47C6.34 6.64 4.69 6.34 3.39 6.26C2.51 6.20 2.10 5.95 2.10 5.50C2.10 5.07 2.55 4.82 3.36 4.82C4.02 4.82 4.58 4.97 5.07 5.43ZM10.68 3.46C8.48 3.46 7.11 5.08 7.11 7.06C7.11 9.04 8.46 10.65 10.70 10.65C12.94 10.65 14.29 9.04 14.29 7.06C14.29 5.08 12.88 3.46 10.68 3.46ZM10.70 5.01C11.84 5.01 12.57 6.02 12.57 7.06C12.57 8.11 11.94 9.09 10.70 9.09C9.45 9.09 8.82 8.11 8.82 7.06C8.82 6.02 9.46 5.01 10.70 5.01ZM22.26 10.50L22.26 6.87C22.26 4.70 20.96 3.49 19.33 3.49C18.47 3.49 17.77 3.84 17.07 4.52L16.95 3.58L15.43 3.58L15.43 10.50L17.12 10.50L17.12 6.97C17.12 5.92 17.84 5.04 18.89 5.04C19.98 5.04 20.55 5.84 20.55 6.89L20.55 10.50ZM28.46 3.77C27.99 3.44 27.43 3.37 26.88 3.37C24.95 3.37 23.38 4.72 23.38 6.87C23.38 9.03 24.72 10.35 26.88 10.35C27.73 10.35 28.63 10.78 28.63 11.73C28.63 12.68 27.86 13.22 26.88 13.22C25.90 13.22 25.07 12.63 25.07 11.73L23.38 11.73C23.38 13.59 24.88 14.81 26.88 14.81C28.88 14.81 30.34 13.64 30.34 11.73C30.34 10.85 30.06 10.02 28.91 9.45C30.04 8.93 30.37 7.73 30.37 6.87C30.37 6.12 30.17 5.43 29.64 4.83L30.41 3.85L29.15 2.90ZM26.88 4.93C27.86 4.93 28.67 5.68 28.67 6.87C28.67 8.06 27.86 8.79 26.88 8.79C25.89 8.79 25.07 8.08 25.07 6.87C25.07 5.67 25.89 4.93 26.88 4.93ZM36.67 3.60L35.41 6.62L34.69 8.53L34.03 6.58L32.98 3.60L31.00 3.60L33.75 10.39L32.47 13.38L34.34 13.38L38.56 3.60ZM41.16 3.57L41.16 10.50L39.45 10.50L39.45 3.57ZM39.30 1.65C39.30 2.98 41.31 2.98 41.31 1.65C41.31 0.32 39.30 0.32 39.30 1.65Z"></path></g><defs data-v-fde0c5aa=""><linearGradient data-v-fde0c5aa="" gradientTransform="rotate(25)" id="e0d4aee7-2b27-4451-9622-3347bb34849e" x1="0%" y1="0%" x2="100%" y2="0%"><stop data-v-fde0c5aa="" offset="0%" stop-color="#8E42D3" stop-opacity="1"></stop><stop data-v-fde0c5aa="" offset="100%" stop-color="#D46975" stop-opacity="1"></stop></linearGradient></defs><g data-v-fde0c5aa="" id="fbd829bd-4356-43ba-9e9b-2aa72f5905ed" stroke="none" fill="url(#e0d4aee7-2b27-4451-9622-3347bb34849e)" transform="matrix(7.187588931894271,0,0,7.187588931894271,34.998577089691665,-7.668089576975014)"><path d="M16 19.586l7.496-12.954H8.504zM7.496 12.414L0 25.368h14.992zM24.504 12.414l-7.496 12.954H32z"></path></g><!----></svg>